<?xml version="1.0"?>
<svg width="690.69531" height="620.52496" xmlns="http://www.w3.org/2000/svg">

    <metadata id="metadata3595">image/svg+xml</metadata>
    <g>
        <title>Layer 1</title>
        <g id="layer1">
            <g transform="matrix(5.90316 0 0 5.90316 -2128.97 -1450.51)" id="g3628">
                <path fill="#005a8b" stroke="#005a8b" stroke-width="4" stroke-linejoin="round"
                      stroke-miterlimit="4"
                      d="m461.560028,265.493347c-4.890503,0 -8.791046,3.967651 -8.791046,8.858154l0,10.401611c2.067719,1.021606 4.411255,1.610565 6.84494,1.610565c8.866791,0 16.038605,-7.572601 16.038605,-16.911011c0,-1.361847 -0.180786,-2.690369 -0.469727,-3.95932l-13.622772,0z"
                      id="path3297"/>
                <path fill="#005a8b" stroke="#005a8b" stroke-width="6" stroke-linejoin="round"
                      stroke-miterlimit="4"
                      d="m434.851379,248.716568c-13.042694,0 -23.621735,10.887711 -23.621735,24.292801c0,7.731537 3.509277,14.609985 8.992371,19.058441c-3.243652,-0.33783 -6.562164,-0.536865 -9.931854,-0.536865c-4.862915,0 -9.605255,0.451111 -14.226746,1.140839c-3.884705,-8.126831 -12.933838,-15.106354 -20.409668,-17.240326c-10.118896,11.161285 -12.097961,22.857208 -12.002197,33.283508c0.111328,12.122437 3.618561,21.560394 8.588806,28.851532c11.515839,6.473541 25.352356,10.267395 40.197235,10.267395c12.48056,0 24.22345,-2.685608 34.493103,-7.381805c6.566986,-7.888824 10.535828,-17.982178 10.535828,-28.990295c0,-7.857727 -2.018707,-15.230133 -5.569916,-21.675629c4.066589,-4.362701 6.576508,-10.262665 6.576508,-16.776794c0,-13.40509 -10.57901,-24.292801 -23.621735,-24.292801z"
                      id="path2278"/>
                <path fill="#005a8b" stroke="#005a8b" stroke-width="2" stroke-linejoin="round"
                      stroke-miterlimit="4" id="path3307"
                      d="m444.792114,266.34671c0,2.11618 -1.791992,3.831696 -4.002533,3.831696c-2.210571,0 -4.002563,-1.715515 -4.002563,-3.831696c0,-2.11618 1.791992,-3.831665 4.002563,-3.831665c2.210541,0 4.002533,1.715485 4.002533,3.831665z"/>
            </g>
        </g>
    </g>
</svg>